<?xml version="1.0" encoding="UTF-8"?>
<!-- Generator: visioncortex VTracer 0.6.2 -->
<svg version="1.1" xmlns="http://www.w3.org/2000/svg" width="1280" height="1280">
<path d="M0 0 C1.19876154 -0.00322445 2.39752309 -0.00644889 3.63261074 -0.00977105 C4.9802482 -0.0082995 6.32788556 -0.00673175 7.6755228 -0.00507832 C9.09425831 -0.00694457 10.5129933 -0.00924453 11.93172747 -0.01194364 C15.85034056 -0.01809392 19.76893241 -0.01792419 23.68754923 -0.01674926 C27.908555 -0.01654599 32.12955381 -0.02205792 36.35055637 -0.02680683 C44.63900524 -0.03513849 52.927447 -0.03786306 61.2158997 -0.03841921 C67.97324013 -0.03889448 74.73057821 -0.04094983 81.4879179 -0.04411983 C100.69272559 -0.0529438 119.89752768 -0.05753808 139.10233741 -0.05678936 C140.13917307 -0.0567494 141.17600873 -0.05670945 142.24426365 -0.05666828 C143.28238689 -0.0566274 144.32051014 -0.05658652 145.39009167 -0.0565444 C162.10673439 -0.05614046 178.82335432 -0.06564122 195.53999048 -0.07980665 C212.75031541 -0.0942733 229.96062933 -0.10107081 247.17096049 -0.10021287 C256.81355286 -0.09988376 266.45612129 -0.10255808 276.09870815 -0.11339092 C476.10507189 -0.32718303 476.10507189 -0.32718303 529.08972263 51.68283367 C538.97157524 61.724071 554.5125742 79.80825968 554.5125742 95.12863445 C555.25789402 95.14321697 556.00321384 95.15779949 556.77111912 95.17282391 C598.21269231 96.06150809 641.43181493 98.0656046 681.25109959 110.42990398 C683.12643775 111.00932942 685.01721203 111.53851855 686.9110117 112.0544157 C701.02179267 116.26316274 714.83383361 121.62245056 727.5125742 129.12863445 C726.79369896 145.35831595 725.57527254 161.55009485 724.35583591 177.74801922 C724.06727215 181.58142812 723.78243593 185.41510369 723.49865055 189.24886894 C723.2770501 192.23710828 723.05352385 195.22520121 722.82942295 198.21325397 C722.72359644 199.62726087 722.61834761 201.04131113 722.51371861 202.45540714 C722.20039003 206.68164651 721.86934461 210.90583857 721.5125742 215.12863445 C721.4386948 216.00524731 721.36481541 216.88186016 721.28869724 217.78503704 C721.1072133 219.57575299 720.82466857 221.35601009 720.5125742 223.12863445 C719.8525742 223.45863445 719.1925742 223.78863445 718.5125742 224.12863445 C718.5950742 225.36613445 718.6775742 226.60363445 718.7625742 227.87863445 C718.95818644 230.81281812 718.67009482 231.89600734 716.9969492 234.3669157 C713.58399233 236.78710996 710.53902026 236.67919589 706.5125742 236.56613445 C705.8010117 236.5732243 705.0894492 236.58031414 704.3563242 236.58761883 C700.05084548 236.53540687 697.5956012 236.15169785 694.5125742 233.12863445 C693.6947031 230.67111492 693.6947031 230.67111492 693.2391367 227.74582195 C693.05762058 226.66929363 692.87610447 225.59276531 692.68908787 224.48361492 C692.50708836 223.33522137 692.32508884 222.18682781 692.1375742 221.00363445 C686.84117708 190.94745635 673.56839073 163.27897671 648.16735935 145.06930828 C639.52546633 139.19085123 630.20956927 134.95575082 620.5125742 131.12863445 C618.73173435 130.42093914 618.73173435 130.42093914 616.91491795 129.69894695 C598.90553076 123.16115363 579.53352998 120.55254958 560.5125742 119.12863445 C560.6569492 120.23336102 560.8013242 121.33808758 560.9500742 122.4762907 C565.60621238 160.40415767 561.82973316 200.70305809 538.01648045 231.9841032 C534.40443756 236.5801116 530.55671822 240.90926755 526.5125742 245.12863445 C525.77909763 245.92527508 525.04562107 246.7219157 524.28991795 247.54269695 C495.78984728 277.51772954 454.54813091 290.83436321 414.87487888 297.66720867 C412.37587519 298.10281499 412.37587519 298.10281499 409.5125742 299.12863445 C410.75780857 299.07642742 410.75780857 299.07642742 412.0281992 299.0231657 C441.00151743 298.38672252 470.88192765 303.57843438 498.5125742 312.12863445 C499.35948826 312.38257977 500.20640232 312.63652508 501.07898045 312.8981657 C541.36596222 325.58522626 577.6752494 350.79055657 597.4603281 388.74386883 C615.77983507 425.36637126 616.55306403 475.54681313 603.9422617 514.07394695 C594.76212186 540.70107638 578.28394761 562.02100065 554.5125742 577.12863445 C553.90607029 577.51503094 553.29956638 577.90142742 552.67468357 578.29953289 C514.35115253 602.23669128 466.00533901 607.31775492 421.9500742 610.81613445 C421.18789585 610.87698223 420.42571751 610.93783001 419.64044285 611.00052166 C398.15320142 612.68949797 376.64380365 613.33797227 355.09753513 613.68503094 C353.82906349 613.70604079 352.56059184 613.72705065 351.25368166 613.74869716 C317.59388546 614.29149302 283.93297211 614.25976814 250.26972307 614.23217318 C241.06214162 614.22482896 231.8545616 614.22350556 222.64697763 614.22237652 C206.2418223 614.22021586 189.83667208 614.2136392 173.43151951 614.20407391 C157.54480101 614.19482083 141.65808393 614.18777924 125.77136326 614.18356609 C124.2895626 614.18317201 124.2895626 614.18317201 122.77782658 614.18276996 C117.81941671 614.18146443 112.86100683 614.18020084 107.90259695 614.17895806 C67.10591915 614.16867897 26.30924697 614.15114494 -14.4874258 614.12863445 C-14.9824258 609.67363445 -14.9824258 609.67363445 -15.4874258 605.12863445 C-13.11415928 603.94200119 -11.67240139 603.99887355 -9.02429104 603.99060345 C-8.0851939 603.98515011 -7.14609676 603.97969677 -6.17854214 603.97407818 C-5.14480968 603.97303585 -4.11107723 603.97199352 -3.04601955 603.97091961 C-1.41644566 603.96329853 -1.41644566 603.96329853 0.24604893 603.95552349 C2.61253133 603.94480081 4.979024 603.93618812 7.34552097 603.92940426 C11.09543268 603.91763305 14.84522828 603.89818219 18.59509373 603.8762846 C29.25977322 603.81462633 39.92442874 603.76047575 50.58923435 603.72726727 C57.10796018 603.70687989 63.62650569 603.67092687 70.14511204 603.62650967 C72.62647128 603.61237873 75.10786743 603.60363382 77.58926487 603.60045528 C81.071734 603.5955246 84.55365474 603.5723078 88.0360117 603.54513836 C89.0535503 603.54814449 90.07108891 603.55115063 91.11946201 603.55424786 C103.43546633 603.41217906 114.11711228 599.39558784 123.2000742 590.94113445 C135.82024891 577.2544661 140.18455517 559.14352729 142.5125742 541.12863445 C142.64465845 540.16322443 142.64465845 540.16322443 142.77941108 539.17831117 C143.80812424 530.51026574 143.65793471 521.81115133 143.65301609 513.0975523 C143.6556028 511.2601019 143.65861681 509.42265206 143.66201949 507.58520299 C143.67005695 502.55183306 143.67187724 497.51847741 143.67261696 492.48510182 C143.67447323 487.04992012 143.6820235 481.61474573 143.68875217 476.17956829 C143.7023135 464.3010311 143.70835696 452.4224973 143.71276283 440.54395366 C143.71552932 433.12003969 143.71976745 425.69612702 143.72426701 418.27221394 C143.73645745 397.69837272 143.74675678 377.12453254 143.7501421 356.55068779 C143.75036166 355.23479957 143.75058123 353.91891136 143.75080745 352.56314774 C143.75102573 351.24419164 143.751244 349.92523553 143.7514689 348.56631106 C143.75191143 345.89380753 143.75235855 343.221304 143.75280857 340.54880047 C143.75291796 339.88618059 143.75302735 339.22356071 143.75314006 338.54086144 C143.75676755 317.07415289 143.77267732 295.60747818 143.79599893 274.14078259 C143.82064586 251.41236001 143.83431052 228.68395676 143.83551002 205.95552045 C143.8364247 193.5789583 143.84212477 181.20244045 143.86032963 168.82589054 C143.87578225 158.28362233 143.88082079 147.74141212 143.87259153 137.19913473 C143.86870307 131.82743811 143.86952567 126.4558581 143.88364887 121.08417606 C143.89649696 116.15203148 143.89509592 111.22008981 143.88305816 106.28794507 C143.88111984 104.51802814 143.88409151 102.74809628 143.89290252 100.97820022 C144.01324299 75.13730139 141.16264238 42.9956007 122.29773045 23.38644695 C108.53822557 12.23217792 92.27423901 10.04589687 75.11560154 9.92331219 C74.23631992 9.91341259 73.35703831 9.90351299 72.45111179 9.89331341 C69.58360455 9.86206483 66.71608081 9.8370881 63.8485117 9.8122282 C61.84497778 9.79162691 59.84144791 9.77062967 57.8379221 9.74925518 C52.59376409 9.69436216 47.34956903 9.64480993 42.10534763 9.59640789 C36.7423588 9.54595185 31.37942304 9.49039227 26.01648045 9.43527508 C15.51522382 9.32809502 5.01392089 9.22656282 -5.4874258 9.12863445 C-6.36633205 2.9762907 -6.36633205 2.9762907 -6.4874258 1.12863445 C-4.74776701 -0.61102434 -2.36742814 0.00159876 0 0 Z M180.5125742 1.12863445 C180.5125742 1.45863445 180.5125742 1.78863445 180.5125742 2.12863445 C192.3925742 2.12863445 204.2725742 2.12863445 216.5125742 2.12863445 C216.5125742 1.79863445 216.5125742 1.46863445 216.5125742 1.12863445 C204.6325742 1.12863445 192.7525742 1.12863445 180.5125742 1.12863445 Z M327.5125742 1.12863445 C327.5125742 1.45863445 327.5125742 1.78863445 327.5125742 2.12863445 C333.4525742 2.12863445 339.3925742 2.12863445 345.5125742 2.12863445 C345.5125742 1.79863445 345.5125742 1.46863445 345.5125742 1.12863445 C339.5725742 1.12863445 333.6325742 1.12863445 327.5125742 1.12863445 Z M365.5125742 2.12863445 C365.5125742 2.45863445 365.5125742 2.78863445 365.5125742 3.12863445 C367.8225742 3.12863445 370.1325742 3.12863445 372.5125742 3.12863445 C372.5125742 2.79863445 372.5125742 2.46863445 372.5125742 2.12863445 C370.2025742 2.12863445 367.8925742 2.12863445 365.5125742 2.12863445 Z M383.5125742 3.12863445 C387.5125742 4.12863445 387.5125742 4.12863445 387.5125742 4.12863445 Z M253.5125742 15.12863445 C253.21219848 16.98381742 253.21219848 16.98381742 253.2641772 19.1344806 C253.25968262 19.97895766 253.25518803 20.82343473 253.25055724 21.69350201 C253.25581127 22.62839441 253.2610653 23.56328681 253.26647854 24.52650928 C253.26417085 25.51820395 253.26186316 26.50989862 253.25948554 27.53164464 C253.25414313 30.89315188 253.26320465 34.25447193 253.27206516 37.61596966 C253.27119396 40.03482924 253.26944457 42.45368864 253.26688683 44.87254703 C253.26333349 50.15139905 253.26604197 55.43019378 253.27416325 60.70903683 C253.28620594 68.55854058 253.28683741 76.40801581 253.28507927 84.25752711 C253.28244793 97.45999513 253.28914768 110.66244316 253.30111408 123.86490536 C253.31293681 136.94228622 253.32064368 150.01965877 253.32281971 163.09704494 C253.32295719 163.90930668 253.32309467 164.72156841 253.32323631 165.55844414 C253.32391295 169.68329253 253.32451573 173.80814093 253.32509007 177.93298934 C253.32929402 207.17057333 253.34277745 236.40814644 253.36169529 265.6457243 C253.38005573 294.05457787 253.39422708 322.46342848 253.40271091 350.8722868 C253.40297397 351.74754051 253.40323702 352.62279422 253.40350804 353.52457077 C253.40614502 362.31400387 253.40869666 371.10343698 253.41118576 379.89287012 C253.41625857 397.79892218 253.42190107 415.70497404 253.42788792 433.61102581 C253.4281625 434.43436774 253.42843708 435.25770967 253.42871998 436.10600135 C253.44713001 491.11355028 253.47886293 546.12109304 253.5125742 601.12863445 C263.97343215 601.17580361 274.43426321 601.21091895 284.89520741 601.2322588 C289.75712284 601.24252124 294.61896351 601.25634121 299.48083591 601.27951336 C319.20288952 601.37093023 338.87590487 601.33274241 358.57116795 600.19894695 C359.30611233 600.15668106 360.04105671 600.11441517 360.79827213 600.07086849 C396.42644351 597.96463938 432.0515189 591.87581235 458.5125742 566.12863445 C459.14679295 565.54468914 459.7810117 564.96074383 460.4344492 564.3591032 C487.47816357 538.81116949 492.11808352 497.28874461 493.32092381 462.23141766 C494.41437067 421.72844181 488.10877273 377.91081384 459.5125742 347.12863445 C438.04102542 326.83154627 403.57950739 311.56811481 373.5125742 312.12863445 C372.1432102 362.71785624 381.39458332 419.91393124 414.5125742 460.12863445 C415.1725742 460.96394695 415.8325742 461.79925945 416.5125742 462.65988445 C423.0827933 470.52423762 431.17505288 476.28786276 439.5125742 482.12863445 C440.34273045 482.72675945 441.1728867 483.32488445 442.0281992 483.94113445 C452.21799796 490.68546169 464.95450212 494.37800179 476.5125742 498.12863445 C476.1825742 499.20113445 475.8525742 500.27363445 475.5125742 501.37863445 C474.3407991 505.12595047 474.3407991 505.12595047 474.5125742 509.12863445 C473.8525742 509.12863445 473.1925742 509.12863445 472.5125742 509.12863445 C472.1000742 510.01550945 471.6875742 510.90238445 471.2625742 511.81613445 C470.6850742 512.90925945 470.1075742 514.00238445 469.5125742 515.12863445 C469.0175742 516.09800945 468.5225742 517.06738445 468.0125742 518.06613445 C465.5125742 520.12863445 465.5125742 520.12863445 463.2884531 520.19479656 C412.62272107 514.72304551 362.01178447 492.61421965 324.5125742 458.12863445 C323.69345554 457.37743328 323.69345554 457.37743328 322.85778904 456.61105633 C288.78915883 424.95785259 266.74336275 377.48725318 264.40628147 331.01503277 C264.35009977 328.90140324 264.32240709 326.78983977 264.3094492 324.67550945 C264.30238956 323.90157848 264.29532993 323.12764751 264.28805637 322.33026409 C264.06012936 289.99499145 264.06012936 289.99499145 267.5125742 274.12863445 C267.81058933 272.71251873 267.81058933 272.71251873 268.11462498 271.26779461 C274.68721713 240.75816648 287.67068916 210.67768139 308.5125742 187.12863445 C309.14485935 186.4138493 309.77714451 185.69906414 310.42858982 184.96261883 C347.17704718 143.7381799 390.32888491 119.48496776 443.5125742 105.12863445 C443.5125742 102.15863445 443.5125742 99.18863445 443.5125742 96.12863445 C442.8525742 96.12863445 442.1925742 96.12863445 441.5125742 96.12863445 C441.5125742 93.81863445 441.5125742 91.50863445 441.5125742 89.12863445 C440.8525742 89.12863445 440.1925742 89.12863445 439.5125742 89.12863445 C439.8425742 88.13863445 440.1725742 87.14863445 440.5125742 86.12863445 C439.8525742 86.12863445 439.1925742 86.12863445 438.5125742 86.12863445 C438.34435154 85.0941618 438.34435154 85.0941618 438.17273045 84.0387907 C433.52801759 63.56357725 417.91101139 45.19660579 400.5125742 34.12863445 C371.8192835 17.49982889 340.10107795 12.97747732 307.3406992 12.9606657 C305.84092269 12.95744274 304.34114648 12.95407793 302.84137058 12.95057964 C299.73208986 12.94465445 296.62283671 12.94273351 293.51355076 12.94333172 C289.52555011 12.94343451 285.53772286 12.92963397 281.54976368 12.91255951 C278.46835602 12.9014779 275.38699138 12.8994111 272.30556583 12.89994144 C270.83351879 12.89876125 269.36147063 12.89433724 267.8894434 12.88660908 C265.84620033 12.87686113 263.80290524 12.88093793 261.75964451 12.88571453 C260.5982999 12.88428951 259.4369553 12.88286449 258.24041843 12.88139629 C255.36589131 12.84838853 255.36589131 12.84838853 253.5125742 15.12863445 Z M142.5125742 67.12863445 C143.5125742 69.12863445 143.5125742 69.12863445 143.5125742 69.12863445 Z M143.5125742 73.12863445 C144.5125742 75.12863445 144.5125742 75.12863445 144.5125742 75.12863445 Z M144.5125742 82.12863445 C145.5125742 84.12863445 145.5125742 84.12863445 145.5125742 84.12863445 Z M579.5125742 97.12863445 C579.5125742 97.45863445 579.5125742 97.78863445 579.5125742 98.12863445 C581.4925742 98.12863445 583.4725742 98.12863445 585.5125742 98.12863445 C585.5125742 97.79863445 585.5125742 97.46863445 585.5125742 97.12863445 C583.5325742 97.12863445 581.5525742 97.12863445 579.5125742 97.12863445 Z M596.5125742 98.12863445 C600.5125742 99.12863445 600.5125742 99.12863445 600.5125742 99.12863445 Z M145.5125742 100.12863445 C145.5125742 237.07863445 145.5125742 374.02863445 145.5125742 515.12863445 C145.8425742 515.12863445 146.1725742 515.12863445 146.5125742 515.12863445 C146.5125742 378.17863445 146.5125742 241.22863445 146.5125742 100.12863445 C146.1825742 100.12863445 145.8525742 100.12863445 145.5125742 100.12863445 Z M444.5125742 104.12863445 C445.5125742 106.12863445 445.5125742 106.12863445 445.5125742 106.12863445 Z M417.5125742 153.12863445 C407.46183068 163.20924645 400.36634544 174.77404422 393.5125742 187.12863445 C392.8525742 186.79863445 392.1925742 186.46863445 391.5125742 186.12863445 C379.78727974 215.42039569 373.48819483 249.6436039 373.3250742 281.19113445 C373.31089451 282.46086102 373.29671482 283.73058758 373.28210545 285.0387907 C373.18248531 288.23357995 373.18248531 288.23357995 375.5125742 290.12863445 C401.7004693 280.05279538 421.85544527 262.47710042 433.6934824 236.9216032 C447.28569752 206.02615183 452.37880741 165.5839878 447.5125742 132.12863445 C437.94063624 132.12863445 424.00682662 146.91249958 417.5125742 153.12863445 Z M448.5125742 134.12863445 C448.5125742 136.43863445 448.5125742 138.74863445 448.5125742 141.12863445 C448.8425742 141.12863445 449.1725742 141.12863445 449.5125742 141.12863445 C449.5125742 138.81863445 449.5125742 136.50863445 449.5125742 134.12863445 C449.1825742 134.12863445 448.8525742 134.12863445 448.5125742 134.12863445 Z M448.5125742 158.12863445 C448.5125742 161.09863445 448.5125742 164.06863445 448.5125742 167.12863445 C448.8425742 167.12863445 449.1725742 167.12863445 449.5125742 167.12863445 C449.5125742 164.15863445 449.5125742 161.18863445 449.5125742 158.12863445 C449.1825742 158.12863445 448.8525742 158.12863445 448.5125742 158.12863445 Z M399.5125742 170.12863445 C400.5125742 172.12863445 400.5125742 172.12863445 400.5125742 172.12863445 Z M398.5125742 172.12863445 C399.5125742 174.12863445 399.5125742 174.12863445 399.5125742 174.12863445 Z M397.5125742 174.12863445 C398.5125742 176.12863445 398.5125742 176.12863445 398.5125742 176.12863445 Z M396.5125742 176.12863445 C397.5125742 178.12863445 397.5125742 178.12863445 397.5125742 178.12863445 Z M447.5125742 177.12863445 C448.5125742 180.12863445 448.5125742 180.12863445 448.5125742 180.12863445 Z M395.5125742 178.12863445 C396.5125742 180.12863445 396.5125742 180.12863445 396.5125742 180.12863445 Z M394.5125742 180.12863445 C395.5125742 182.12863445 395.5125742 182.12863445 395.5125742 182.12863445 Z M393.5125742 182.12863445 C394.5125742 184.12863445 394.5125742 184.12863445 394.5125742 184.12863445 Z M392.5125742 184.12863445 C393.5125742 186.12863445 393.5125742 186.12863445 393.5125742 186.12863445 Z M446.5125742 187.12863445 C447.5125742 189.12863445 447.5125742 189.12863445 447.5125742 189.12863445 Z M445.5125742 194.12863445 C446.5125742 196.12863445 446.5125742 196.12863445 446.5125742 196.12863445 Z M491.5125742 420.12863445 C492.5125742 423.12863445 492.5125742 423.12863445 492.5125742 423.12863445 Z M492.5125742 428.12863445 C493.5125742 432.12863445 493.5125742 432.12863445 493.5125742 432.12863445 Z M493.5125742 443.12863445 C493.5125742 446.09863445 493.5125742 449.06863445 493.5125742 452.12863445 C493.8425742 452.12863445 494.1725742 452.12863445 494.5125742 452.12863445 C494.5125742 449.15863445 494.5125742 446.18863445 494.5125742 443.12863445 C494.1825742 443.12863445 493.8525742 443.12863445 493.5125742 443.12863445 Z M493.5125742 457.12863445 C493.5125742 460.42863445 493.5125742 463.72863445 493.5125742 467.12863445 C493.8425742 467.12863445 494.1725742 467.12863445 494.5125742 467.12863445 C494.5125742 463.82863445 494.5125742 460.52863445 494.5125742 457.12863445 C494.1825742 457.12863445 493.8525742 457.12863445 493.5125742 457.12863445 Z M492.5125742 479.12863445 C493.5125742 483.12863445 493.5125742 483.12863445 493.5125742 483.12863445 Z M491.5125742 489.12863445 C492.5125742 491.12863445 492.5125742 491.12863445 492.5125742 491.12863445 Z M489.5125742 502.12863445 C490.5125742 504.12863445 490.5125742 504.12863445 490.5125742 504.12863445 Z M144.5125742 531.12863445 C145.5125742 534.12863445 145.5125742 534.12863445 145.5125742 534.12863445 Z M143.5125742 541.12863445 C144.5125742 543.12863445 144.5125742 543.12863445 144.5125742 543.12863445 Z M361.5125742 600.12863445 C361.5125742 600.45863445 361.5125742 600.78863445 361.5125742 601.12863445 C363.1625742 601.12863445 364.8125742 601.12863445 366.5125742 601.12863445 C366.5125742 600.79863445 366.5125742 600.46863445 366.5125742 600.12863445 C364.8625742 600.12863445 363.2125742 600.12863445 361.5125742 600.12863445 Z M338.5125742 601.12863445 C338.5125742 601.45863445 338.5125742 601.78863445 338.5125742 602.12863445 C341.8125742 602.12863445 345.1125742 602.12863445 348.5125742 602.12863445 C348.5125742 601.79863445 348.5125742 601.46863445 348.5125742 601.12863445 C345.2125742 601.12863445 341.9125742 601.12863445 338.5125742 601.12863445 Z " fill="#FAFCFC" transform="translate(272.4874258041382,273.8713655471802)"/>
<path d="M0 0 C1.09232437 -0.00281982 2.18464874 -0.00563965 3.31007385 -0.00854492 C5.12336182 -0.00550858 5.12336182 -0.00550858 6.97328186 -0.00241089 C8.23817947 -0.00416321 9.50307709 -0.00591553 10.80630493 -0.00772095 C14.28561755 -0.01229509 17.76490065 -0.01050568 21.24421382 -0.00734186 C24.87880329 -0.00481762 28.51339017 -0.00715603 32.14797974 -0.00872803 C38.25381425 -0.01054977 44.35963668 -0.00814355 50.46546936 -0.00338745 C57.53127541 0.00205275 64.5970526 0.00029429 71.66285795 -0.00521386 C77.72061121 -0.00974777 83.77835577 -0.01039409 89.83611017 -0.00777519 C93.45792366 -0.00621364 97.07972356 -0.00601528 100.70153618 -0.00931168 C104.73875012 -0.01272913 108.7759141 -0.00799608 112.81312561 -0.00241089 C114.62337723 -0.00544724 114.62337723 -0.00544724 116.47019958 -0.00854492 C117.56534378 -0.0057251 118.66048798 -0.00290527 119.78881836 0 C121.22210181 0.00056554 121.22210181 0.00056554 122.68434048 0.0011425 C124.957901 0.12698364 124.957901 0.12698364 126.957901 1.12698364 C126.957901 3.76698364 126.957901 6.40698364 126.957901 9.12698364 C126.297901 9.45698364 125.637901 9.78698364 124.957901 10.12698364 C124.98110413 10.82565552 125.00430725 11.52432739 125.0282135 12.24417114 C125.04626038 13.15424927 125.06430725 14.06432739 125.082901 15.00198364 C125.10610413 15.90690552 125.12930725 16.81182739 125.1532135 17.74417114 C124.957901 20.12698364 124.957901 20.12698364 122.957901 22.12698364 C120.7356046 22.35468976 118.5029604 22.48618985 116.270401 22.56448364 C107.56219238 22.96622348 107.56219238 22.96622348 100.504776 27.65823364 C99.29824871 29.1282554 98.12546563 30.62582911 96.957901 32.12698364 C96.297901 32.12698364 95.637901 32.12698364 94.957901 32.12698364 C94.46911321 36.08418754 93.99381594 40.04291363 93.520401 44.00198364 C93.31834045 45.63587036 93.31834045 45.63587036 93.11219788 47.30276489 C90.68777922 67.76249302 90.68455443 88.31276136 90.42567444 108.88516235 C90.374729 112.86815092 90.31943101 116.85107907 90.26454163 120.83401489 C90.15816145 128.59828613 90.05646887 136.36260887 89.957901 144.12698364 C89.297901 144.45698364 88.637901 144.78698364 87.957901 145.12698364 C87.957901 148.42698364 87.957901 151.72698364 87.957901 155.12698364 C80.79343078 158.92303444 73.7773158 161.73181842 66.020401 164.06448364 C64.90520081 164.40366821 63.79000061 164.74285278 62.64100647 165.09231567 C22.86917025 176.8956777 22.86917025 176.8956777 5.957901 176.12698364 C6.09067444 175.41155396 6.22344788 174.69612427 6.36024475 173.95901489 C6.53684631 172.96256958 6.71344788 171.96612427 6.895401 170.93948364 C7.18544006 169.30559692 7.18544006 169.30559692 7.4813385 167.63870239 C7.95709049 164.13295618 7.99600338 160.78557177 8.020401 157.25198364 C8.38774354 151.74840526 8.38774354 151.74840526 10.739151 149.18557739 C13.08178318 147.64922786 15.44988483 146.37310489 17.957901 145.12698364 C24.15708933 141.52885335 26.91840176 138.24246965 29.1688385 131.39651489 C29.42922913 130.31756958 29.68961975 129.23862427 29.957901 128.12698364 C30.13450256 127.42573364 30.31110413 126.72448364 30.49305725 126.00198364 C32.55633541 116.5928499 32.26551335 107.0811193 32.207901 97.50198364 C32.20479919 96.59368805 32.20169739 95.68539246 32.19850159 94.74957275 C33.15074845 60.05561816 33.15074845 60.05561816 21.957901 28.12698364 C20.05522826 26.548168 20.05522826 26.548168 17.957901 25.75198364 C17.297901 25.45549927 16.637901 25.15901489 15.957901 24.85354614 C12.73571493 23.68298636 10.25731257 23.12698364 6.786026 23.12698364 C-2.59788412 23.12698364 -2.59788412 23.12698364 -6.77256775 20.23635864 C-8.94390291 17.91514371 -10.66735774 15.99681388 -12.042099 13.12698364 C-11.8936615 10.41213989 -11.8936615 10.41213989 -11.042099 8.12698364 C-8.479599 6.81448364 -8.479599 6.81448364 -6.042099 6.12698364 C-6.062724 5.32260864 -6.083349 4.51823364 -6.104599 3.68948364 C-5.99455601 -0.82227893 -3.98999415 0.00157498 0 0 Z M95.957901 26.12698364 C96.957901 28.12698364 96.957901 28.12698364 96.957901 28.12698364 Z M8.957901 158.12698364 C9.957901 160.12698364 9.957901 160.12698364 9.957901 160.12698364 Z " fill="#FAFCFC" transform="translate(887.0420989990234,619.8730163574219)"/>
<path d="M0 0 C0 4.01811031 -2.00161621 5.78859026 -4.4375 8.75 C-35.61560663 48.16550412 -47.73458693 101.63511716 -41.97998047 151.06958008 C-37.91249619 182.34952629 -27.51477086 213.21953592 -9 239 C-8.24074219 240.07378906 -7.48148438 241.14757812 -6.69921875 242.25390625 C4.68392525 257.78276318 19.14235053 272.07804393 35 283 C35.57492187 283.40331543 36.14984375 283.80663086 36.7421875 284.22216797 C70.88027841 308.11333728 108.84105085 320.74741046 149.49365234 328.84692383 C154.81637659 329.90818829 154.81637659 329.90818829 157 331 C156.73522495 335.3687883 154.97295022 338.4360113 152.03808594 341.5690918 C147.61787596 344.67245196 141.137223 342.35458063 136.10693359 341.52001953 C89.20195085 332.81188846 44.29489386 313.5371646 9 281 C8.4215332 280.46681152 7.84306641 279.93362305 7.24707031 279.38427734 C-27.16548468 247.23995199 -49.73232662 200.09206329 -52.10629272 152.88639832 C-52.16247443 150.77276879 -52.19016711 148.66120532 -52.203125 146.546875 C-52.21018463 145.77294403 -52.21724426 144.99901306 -52.22451782 144.20162964 C-52.45244484 111.86635699 -52.45244484 111.86635699 -49 96 C-48.70198486 94.58388428 -48.70198486 94.58388428 -48.39794922 93.13916016 C-41.80908906 62.55401677 -28.79463024 32.65900686 -8 9 C-7.22785156 8.11828125 -6.45570313 7.2365625 -5.66015625 6.328125 C-3.78599763 4.20693317 -1.90064673 2.09744394 0 0 Z " fill="#000100" transform="translate(588,452)"/>
<path d="M0 0 C0.82113281 0.7321875 1.64226562 1.464375 2.48828125 2.21875 C20.694378 19.20733172 30.82869722 42.63421661 36.3125 66.5 C36.48426758 67.24169434 36.65603516 67.98338867 36.83300781 68.74755859 C37.811714 73.26411395 38.16414385 77.37965449 38 82 C39.48113281 82.07347656 39.48113281 82.07347656 40.9921875 82.1484375 C42.27351563 82.22320312 43.55484375 82.29796875 44.875 82.375 C46.15117188 82.44460938 47.42734375 82.51421875 48.7421875 82.5859375 C52 83 52 83 54 85 C54.67811345 92.00717235 54.67811345 92.00717235 52.4765625 95.23046875 C49.07024203 97.66432233 46.02726999 97.55058457 42 97.4375 C41.2884375 97.44458984 40.576875 97.45167969 39.84375 97.45898438 C35.53827128 97.40677241 33.083027 97.02306339 30 94 C29.18212891 91.54248047 29.18212891 91.54248047 28.7265625 88.6171875 C28.54504639 87.54065918 28.36353027 86.46413086 28.17651367 85.35498047 C27.9035144 83.63239014 27.9035144 83.63239014 27.625 81.875 C22.32860289 51.8188219 9.05581653 24.15034226 -16.34521484 5.94067383 C-24.98710787 0.06221678 -34.30300492 -4.17288363 -44 -8 C-45.18722656 -8.47179687 -46.37445312 -8.94359375 -47.59765625 -9.4296875 C-65.23642298 -15.83293765 -84.36286564 -18.32472763 -102.90136719 -20.69042969 C-104.3856073 -20.90937064 -105.86141215 -21.18954683 -107.32666016 -21.51196289 C-147.62438405 -28.8685976 -196.44269645 -22.03115092 -230.41015625 1.29296875 C-233.35794724 3.44200347 -236.19026041 5.67400323 -239 8 C-239.90878906 8.73347656 -240.81757812 9.46695313 -241.75390625 10.22265625 C-254.56356918 21.13729081 -263.23215727 35.24894511 -271 50 C-272.14826216 46.55521352 -271.92939863 46.22423437 -270.41796875 43.12890625 C-270.06283203 42.38962891 -269.70769531 41.65035156 -269.34179688 40.88867188 C-268.77041992 39.7372168 -268.77041992 39.7372168 -268.1875 38.5625 C-267.81818359 37.79873047 -267.44886719 37.03496094 -267.06835938 36.24804688 C-266.05610499 34.15993146 -265.03250512 32.07816481 -264 30 C-263.49412354 28.96854858 -263.49412354 28.96854858 -262.97802734 27.91625977 C-258.38967144 18.92624342 -251.94101496 11.23968169 -245 4 C-244.30261719 3.23945313 -243.60523438 2.47890625 -242.88671875 1.6953125 C-217.20737935 -25.43934595 -177.64710724 -34.53336201 -141.63671875 -35.8671875 C-95.13063053 -37.09829344 -35.65380436 -33.92187752 0 0 Z " fill="#000100" transform="translate(937,413)"/>
<path d="M0 0 C0.65355469 0.42925781 1.30710937 0.85851562 1.98046875 1.30078125 C6.55455142 4.76303999 6.55455142 4.76303999 7.39453125 7.7734375 C8.21003961 15.87323243 8.21003961 15.87323243 5.8125 19.6875 C2.88989358 22.45628503 0.70916951 23.85842138 -3.1875 24.6875 C-1.44073375 27.25221794 0.31049294 29.81385991 2.0625 32.375 C2.79919922 33.4568457 2.79919922 33.4568457 3.55078125 34.56054688 C7.80522581 41.56255055 7.80522581 41.56255055 13.8125 46.6875 C13.8125 47.3475 13.8125 48.0075 13.8125 48.6875 C8.40854854 50.01392445 3.05312398 51.03059724 -2.1875 48.6875 C-7.65970322 43.3158326 -11.31768067 36.31550324 -14.92919922 29.61523438 C-15.34443848 28.97908203 -15.75967773 28.34292969 -16.1875 27.6875 C-16.8475 27.6875 -17.5075 27.6875 -18.1875 27.6875 C-18.1875 32.9675 -18.1875 38.2475 -18.1875 43.6875 C-16.2075 44.6775 -14.2275 45.6675 -12.1875 46.6875 C-12.1875 47.3475 -12.1875 48.0075 -12.1875 48.6875 C-20.4375 48.6875 -28.6875 48.6875 -37.1875 48.6875 C-37.1875 47.6975 -37.1875 46.7075 -37.1875 45.6875 C-35.2075 45.1925 -35.2075 45.1925 -33.1875 44.6875 C-33.1875 30.1675 -33.1875 15.6475 -33.1875 0.6875 C-34.5075 0.6875 -35.8275 0.6875 -37.1875 0.6875 C-37.1875 0.0275 -37.1875 -0.6325 -37.1875 -1.3125 C-32.81256889 -1.4810079 -28.43754517 -1.64698193 -24.0625 -1.8125 C-22.825 -1.86019531 -21.5875 -1.90789063 -20.3125 -1.95703125 C-19.11367188 -2.00214844 -17.91484375 -2.04726563 -16.6796875 -2.09375 C-15.03009033 -2.1565918 -15.03009033 -2.1565918 -13.34716797 -2.22070312 C-3.69629666 -2.50108696 -3.69629666 -2.50108696 0 0 Z M-17.3984375 1.58984375 C-20.28620358 4.97571795 -19.6099849 8.58609667 -19.4375 12.875 C-19.41945313 13.71998047 -19.40140625 14.56496094 -19.3828125 15.43554688 C-19.33570586 17.52001573 -19.26396233 19.60390144 -19.1875 21.6875 C-17.75094146 21.76881463 -16.3130517 21.82683559 -14.875 21.875 C-14.07449219 21.90980469 -13.27398437 21.94460938 -12.44921875 21.98046875 C-10.11611373 21.87501674 -10.11611373 21.87501674 -8.4309082 20.30175781 C-5.32647518 16.27141986 -6.08265611 10.51314564 -6.6875 5.75 C-7.95002449 2.37339523 -7.95002449 2.37339523 -11.5625 1.0625 C-15.02102627 0.41703262 -15.02102627 0.41703262 -17.3984375 1.58984375 Z M-6.1875 7.6875 C-5.1875 9.6875 -5.1875 9.6875 -5.1875 9.6875 Z M-6.1875 14.6875 C-5.1875 16.6875 -5.1875 16.6875 -5.1875 16.6875 Z " fill="#FBFDFD" transform="translate(353.1875,908.3125)"/>
<path d="M0 0 C4.67718855 -0.14952894 9.35295433 -0.25775951 14.03198242 -0.32958984 C15.61979438 -0.35956376 17.20744357 -0.40035909 18.79467773 -0.45263672 C34.68594292 -0.96251689 34.68594292 -0.96251689 41.45336914 4.40771484 C44.39370734 7.43484755 45.34621167 9.62334645 45.5 13.75 C45.41352242 18.67922224 44.05145632 21.10756104 40.703125 24.625 C38.89701513 26.08314375 37.08401887 26.99399605 35 28 C37.06855705 31.1350171 39.1572734 34.25607556 41.25 37.375 C41.83652344 38.26445313 42.42304687 39.15390625 43.02734375 40.0703125 C43.60097656 40.92109375 44.17460938 41.771875 44.765625 42.6484375 C45.55114746 43.82672119 45.55114746 43.82672119 46.35253906 45.02880859 C48.09599129 47.11485384 49.50268342 47.98872922 52 49 C52 49.66 52 50.32 52 51 C38.01175483 52.36020151 38.01175483 52.36020151 33.66015625 49.41796875 C31.84154422 47.04307539 30.43524363 44.62455036 29 42 C27.5307438 39.84736883 26.05136552 37.70161528 24.5625 35.5625 C21 30.26944972 21 30.26944972 21 28 C20.34 28 19.68 28 19 28 C19 34.27 19 40.54 19 47 C20.98 47.66 22.96 48.32 25 49 C25 49.66 25 50.32 25 51 C16.75 51 8.5 51 0 51 C0.33 50.01 0.66 49.02 1 48 C2.32 48 3.64 48 5 48 C4.67 33.48 4.34 18.96 4 4 C2.68 3.67 1.36 3.34 0 3 C0 2.01 0 1.02 0 0 Z M20 4 C18.82573736 6.34852528 18.88491827 7.73774065 18.90234375 10.3515625 C18.90556641 11.20234375 18.90878906 12.053125 18.91210938 12.9296875 C18.92048828 13.81914063 18.92886719 14.70859375 18.9375 15.625 C18.94201172 16.5221875 18.94652344 17.419375 18.95117188 18.34375 C18.96297409 20.56256648 18.97943845 22.78125018 19 25 C24.95997843 24.91483769 24.95997843 24.91483769 30.04296875 22.28125 C31.19743663 19.52937554 31.36574161 17.48152993 31.3125 14.5 C31.30863281 13.5615625 31.30476562 12.623125 31.30078125 11.65625 C30.99135175 8.92362581 30.52499488 7.27725746 29 5 C25.36656983 3.37655248 23.82788944 2.72403685 20 4 Z M6 7 C6 19.54 6 32.08 6 45 C6.33 45 6.66 45 7 45 C7 32.46 7 19.92 7 7 C6.67 7 6.34 7 6 7 Z " fill="#FBFDFD" transform="translate(889,906)"/>
<path d="M0 0 C4.41071299 -0.12452065 8.82046857 -0.21476527 13.23242188 -0.2746582 C14.72999923 -0.29965007 16.22745651 -0.33365627 17.72460938 -0.37719727 C32.71424931 -0.80190373 32.71424931 -0.80190373 38.63476562 3.62426758 C41.41105382 6.4219042 42.3262674 8.54074702 42.4375 12.375 C42.36419888 16.12557411 42.102738 16.86671828 39.6875 20 C37 22 37 22 34 23 C34.54269531 23.38671875 35.08539063 23.7734375 35.64453125 24.171875 C36.35996094 24.69265625 37.07539063 25.2134375 37.8125 25.75 C38.52019531 26.26046875 39.22789062 26.7709375 39.95703125 27.296875 C43.58266722 30.31939371 44.89985333 32.11298665 45.4375 36.875 C45.23483848 41.23627584 43.97730116 43.72496872 41 47 C33.31059354 52.35928329 24.97059064 51.45210045 16 51.25 C14.44663758 51.22990643 12.8932501 51.2116607 11.33984375 51.1953125 C7.55927021 51.15153679 3.77991489 51.08266974 0 51 C0 50.01 0 49.02 0 48 C1.98 47.505 1.98 47.505 4 47 C4 32.81 4 18.62 4 4 C2.68 3.67 1.36 3.34 0 3 C0 2.01 0 1.02 0 0 Z M19 5 C17.81318274 8.56045177 17.90310168 11.43808337 17.9375 15.1875 C17.94652344 16.45980469 17.95554687 17.73210938 17.96484375 19.04296875 C17.97644531 20.01878906 17.98804688 20.99460937 18 22 C23.58315821 21.89734043 23.58315821 21.89734043 28.0625 19.0625 C29.43657774 14.57384606 29.31589312 10.51163357 28 6 C24.14528131 2.72348911 23.12259076 2.25160616 19 5 Z M19 26 C17.42847281 29.14305438 17.85681411 32.491274 17.875 35.9375 C17.87113281 36.66646484 17.86726563 37.39542969 17.86328125 38.14648438 C17.8691696 41.35857736 17.97738147 43.9321444 19 47 C20.45742463 47.08096803 21.91612807 47.13917774 23.375 47.1875 C24.59316406 47.23970703 24.59316406 47.23970703 25.8359375 47.29296875 C26.55007813 47.19628906 27.26421875 47.09960938 28 47 C30.38981361 43.41527958 30.24010257 41.74646235 30.1875 37.5 C30.18105469 36.3553125 30.17460937 35.210625 30.16796875 34.03125 C30.13084584 30.95377899 30.13084584 30.95377899 29 28 C25.75515269 25.71658893 22.87540045 25.82384543 19 26 Z M31 34 C31 36.31 31 38.62 31 41 C31.33 41 31.66 41 32 41 C32 38.69 32 36.38 32 34 C31.67 34 31.34 34 31 34 Z " fill="#FBFDFD" transform="translate(257,906)"/>
<path d="M0 0 C4.41074704 -0.09961729 8.82088095 -0.17181669 13.23242188 -0.21972656 C14.7299339 -0.23971919 16.22736908 -0.26692299 17.72460938 -0.30175781 C28.05969229 -0.53601969 34.5852043 0.1471646 43.25 6.3125 C48.79650623 11.73294927 51.11664819 17.48643323 51.25 25.1875 C51.14898726 33.60522848 49.05808252 40.07960117 43 46 C37.23125074 49.9644268 32.38183436 51.14802724 25.48828125 51.09765625 C24.76005661 51.0962413 24.03183197 51.09482635 23.28153992 51.09336853 C20.95848461 51.08777659 18.63552612 51.07522562 16.3125 51.0625 C14.73632952 51.05748396 13.16015752 51.05292123 11.58398438 51.04882812 C7.72261902 51.0378098 3.86132592 51.02055074 0 51 C0.33 50.01 0.66 49.02 1 48 C2.32 48 3.64 48 5 48 C4.67 33.48 4.34 18.96 4 4 C2.68 3.34 1.36 2.68 0 2 C0 1.34 0 0.68 0 0 Z M20 4 C18.31241165 7.37517669 18.85846642 11.19855599 18.8671875 14.91015625 C18.86623077 15.79279648 18.86527405 16.67543671 18.86428833 17.58482361 C18.86360731 19.45181347 18.86545615 21.31880569 18.86962891 23.18579102 C18.8749846 26.05425288 18.86967801 28.92255861 18.86328125 31.79101562 C18.86394192 33.60156285 18.86522285 35.41210997 18.8671875 37.22265625 C18.86516327 38.08617203 18.86313904 38.94968781 18.86105347 39.83937073 C18.48965179 43.73211271 18.48965179 43.73211271 20 47 C24.77088348 47.69000381 28.00196305 47.74321901 31.9375 44.8125 C36.26998946 38.90455982 36.33731499 33.79947562 36.3125 26.6875 C36.32861328 25.77548828 36.34472656 24.86347656 36.36132812 23.92382812 C36.36632802 16.94896978 35.70676243 10.77799303 30.625 5.5625 C26.71871604 3.23733098 24.34569552 2.55143483 20 4 Z M6 7 C6 19.87 6 32.74 6 46 C6.33 46 6.66 46 7 46 C7 33.13 7 20.26 7 7 C6.67 7 6.34 7 6 7 Z M37 21 C37 24.63 37 28.26 37 32 C37.33 32 37.66 32 38 32 C38 28.37 38 24.74 38 21 C37.67 21 37.34 21 37 21 Z " fill="#FBFDFD" transform="translate(502,906)"/>
<path d="M0 0 C3.98756555 0.01168359 7.9625454 0.38830987 11.9375 0.6875 C13.59362305 0.78708008 13.59362305 0.78708008 15.28320312 0.88867188 C23.35704923 1.49432956 30.86577985 2.73901447 37.3671875 7.8671875 C51.6705743 26.91366629 49.07114331 56.85741358 49.23016357 79.65988159 C49.24318321 81.31888344 49.26097047 82.97785613 49.28399658 84.63674927 C49.48353692 100.16685157 48.71884954 115.56957159 40 129 C39.34 129.33 38.68 129.66 38 130 C38.28875 128.741875 38.5775 127.48375 38.875 126.1875 C39.05691895 125.34775635 39.23883789 124.5080127 39.42626953 123.64282227 C39.77923097 122.01694668 40.14680893 120.39406378 40.53857422 118.77709961 C42.57912836 109.38804089 42.30747282 99.93093595 42.25 90.375 C42.24689819 89.46670441 42.24379639 88.55840881 42.24060059 87.62258911 C43.19284745 52.92863452 43.19284745 52.92863452 32 21 C30.09732726 19.42118436 30.09732726 19.42118436 28 18.625 C27.34 18.32851563 26.68 18.03203125 26 17.7265625 C22.77781393 16.55600272 20.29941157 16 16.828125 16 C7.44421488 16 7.44421488 16 3.26953125 13.109375 C1.09819609 10.78816007 -0.62525874 8.86983024 -2 6 C-1.6043956 1.6043956 -1.6043956 1.6043956 0 0 Z " fill="#000100" transform="translate(877,627)"/>
<path d="M0 0 C3.99088428 1.29390672 3.99088428 1.29390672 11.25 -0.125 C11.25 5.485 11.25 11.095 11.25 16.875 C10.26 16.875 9.27 16.875 8.25 16.875 C6.92578125 14.828125 6.92578125 14.828125 5.5625 12.125 C3.04245637 7.72739911 0.99371728 5.26921481 -3.73046875 3.36328125 C-7.07690396 2.55418183 -9.48589052 2.87065862 -12.75 3.875 C-17.68854222 7.57890667 -19.8045453 12.92370031 -20.75 18.875 C-21.39327209 28.00735458 -21.3486621 36.70814523 -16.75 44.875 C-13.22320901 47.22619399 -11.72120515 47.08943452 -7.5625 47 C-6.47582031 46.98195313 -5.38914062 46.96390625 -4.26953125 46.9453125 C-3.43808594 46.92210937 -2.60664062 46.89890625 -1.75 46.875 C-1.72305149 44.91674127 -1.70362782 42.95837774 -1.6875 41 C-1.67589844 39.90945313 -1.66429687 38.81890625 -1.65234375 37.6953125 C-1.55255697 34.92322454 -1.55255697 34.92322454 -2.75 32.875 C-4.77463255 32.22286708 -4.77463255 32.22286708 -6.75 31.875 C-6.75 31.215 -6.75 30.555 -6.75 29.875 C1.5 29.875 9.75 29.875 18.25 29.875 C18.25 30.535 18.25 31.195 18.25 31.875 C15.775 32.37 15.775 32.37 13.25 32.875 C12.92 38.155 12.59 43.435 12.25 48.875 C5.68207945 51.37359339 0.19333737 52.37146267 -6.8125 52.3125 C-7.65876953 52.33248047 -8.50503906 52.35246094 -9.37695312 52.37304688 C-16.57715128 52.36749545 -21.52833943 50.39111171 -27.17578125 45.98046875 C-33.4378786 39.61465136 -35.85189285 35.11543849 -36.3125 26.1875 C-36.12079543 18.68705874 -34.22826672 12.91652204 -29.75 6.875 C-21.44227431 -0.85133789 -10.71158156 -4.38201064 0 0 Z M-9.75 48.875 C-9.75 49.205 -9.75 49.535 -9.75 49.875 C-7.77 49.875 -5.79 49.875 -3.75 49.875 C-3.75 49.545 -3.75 49.215 -3.75 48.875 C-5.73 48.875 -7.71 48.875 -9.75 48.875 Z " fill="#FBFDFD" transform="translate(701.75,906.125)"/>
<path d="M0 0 C3.99088428 1.29390672 3.99088428 1.29390672 11.25 -0.125 C11.25 5.485 11.25 11.095 11.25 16.875 C10.26 16.875 9.27 16.875 8.25 16.875 C6.92578125 14.828125 6.92578125 14.828125 5.5625 12.125 C3.04288157 7.7281411 0.99532687 5.26267871 -3.734375 3.3671875 C-7.13167192 2.537615 -9.43762083 2.81253876 -12.75 3.875 C-17.7901617 7.54057214 -19.70981627 11.89794424 -20.75 17.875 C-21.63460744 27.03700565 -21.98333974 36.87621652 -16.75 44.875 C-13.22320901 47.22619399 -11.72120515 47.08943452 -7.5625 47 C-6.47582031 46.98195313 -5.38914062 46.96390625 -4.26953125 46.9453125 C-3.43808594 46.92210937 -2.60664062 46.89890625 -1.75 46.875 C-1.72305149 44.91674127 -1.70362782 42.95837774 -1.6875 41 C-1.67589844 39.90945313 -1.66429687 38.81890625 -1.65234375 37.6953125 C-1.55255697 34.92322454 -1.55255697 34.92322454 -2.75 32.875 C-4.39363134 32.15340576 -6.06050386 31.48148579 -7.75 30.875 C-7.75 30.545 -7.75 30.215 -7.75 29.875 C0.83 29.875 9.41 29.875 18.25 29.875 C18.25 30.535 18.25 31.195 18.25 31.875 C15.775 32.37 15.775 32.37 13.25 32.875 C12.92 38.155 12.59 43.435 12.25 48.875 C5.68207945 51.37359339 0.19333737 52.37146267 -6.8125 52.3125 C-7.65876953 52.33248047 -8.50503906 52.35246094 -9.37695312 52.37304688 C-16.57819975 52.36749464 -21.56052972 50.41219536 -27.17578125 45.9453125 C-27.79839844 45.30335938 -28.42101562 44.66140625 -29.0625 44 C-30.01576172 43.04480469 -30.01576172 43.04480469 -30.98828125 42.0703125 C-36.43795293 35.27936908 -36.74503108 28.21850232 -36.03857422 19.83886719 C-34.94122328 12.37093913 -30.70405168 7.20193087 -24.8125 2.8125 C-16.72800064 -2.25394787 -8.99464318 -3.67962676 0 0 Z M-10.75 48.875 C-10.75 49.205 -10.75 49.535 -10.75 49.875 C-8.44 49.875 -6.13 49.875 -3.75 49.875 C-3.75 49.545 -3.75 49.215 -3.75 48.875 C-6.06 48.875 -8.37 48.875 -10.75 48.875 Z " fill="#FBFDFD" transform="translate(795.75,906.125)"/>
<path d="M0 0 C13.79159603 -0.41843435 13.79159603 -0.41843435 18.45703125 2.578125 C20.53228401 4.93735972 22.24929155 7.38991742 24 10 C25.36543208 11.77944968 26.76098757 13.53248412 28.15966797 15.28588867 C29.59832199 17.09151692 31.01757976 18.91096313 32.43359375 20.734375 C35.18206158 24.25386516 38.04812012 27.64921743 41 31 C40.505 29.515 40.505 29.515 40 28 C39.91760831 26.15389468 39.89256641 24.30494836 39.90234375 22.45703125 C39.90556641 21.38388672 39.90878906 20.31074219 39.91210938 19.20507812 C39.92467773 17.52575195 39.92467773 17.52575195 39.9375 15.8125 C39.94201172 14.68134766 39.94652344 13.55019531 39.95117188 12.38476562 C39.96296502 9.58979073 39.9794235 6.7949218 40 4 C38.02 3.34 36.04 2.68 34 2 C34.33 1.34 34.66 0.68 35 0 C40.28 0.33 45.56 0.66 51 1 C51 1.66 51 2.32 51 3 C50.0409375 3.433125 50.0409375 3.433125 49.0625 3.875 C46.84793921 4.82823451 46.84793921 4.82823451 46 7 C45.88232528 8.4494793 45.82310732 9.90393996 45.79467773 11.35791016 C45.77473251 12.25869293 45.75478729 13.15947571 45.73423767 14.08755493 C45.70916893 15.54855118 45.70916893 15.54855118 45.68359375 17.0390625 C45.66281265 18.03505463 45.64203156 19.03104675 45.62062073 20.05722046 C45.55510958 23.24640854 45.49623296 26.43568058 45.4375 29.625 C45.39431627 31.78386293 45.35070203 33.9427173 45.30664062 36.1015625 C45.19942664 41.4009523 45.09766315 46.70042606 45 52 C40.54306118 51.16391946 38.68265793 48.7240925 35.9375 45.3125 C35.46143311 44.7359668 34.98536621 44.15943359 34.49487305 43.56542969 C30.59659471 38.81658298 26.793087 33.98753969 23.05639648 29.1105957 C19.2389765 24.16643188 15.1889748 19.71259665 11 15 C11 25.23 11 35.46 11 46 C12.98 46.99 14.96 47.98 17 49 C17 49.66 17 50.32 17 51 C11.39 51 5.78 51 0 51 C0 50.01 0 49.02 0 48 C1.98 47.505 1.98 47.505 4 47 C4.09892174 41.3766798 4.17149342 35.75386667 4.21972656 30.12988281 C4.23983452 28.21703265 4.26712507 26.30424389 4.30175781 24.39160156 C4.35031249 21.64112189 4.37297658 18.89145523 4.390625 16.140625 C4.41127014 15.28631897 4.43191528 14.43201294 4.45318604 13.55181885 C4.52943011 8.65495744 4.52943011 8.65495744 1.97558594 4.61621094 C1.32364258 4.08286133 0.67169922 3.54951172 0 3 C0 2.01 0 1.02 0 0 Z " fill="#FBFDFD" transform="translate(440,906)"/>
<path d="M0 0 C0.79535156 0.96808594 1.59070313 1.93617188 2.41015625 2.93359375 C3.36393063 4.01344846 4.31975457 5.09149547 5.27734375 6.16796875 C6.28255757 7.337606 7.28508903 8.509553 8.28515625 9.68359375 C8.80891846 10.29541504 9.33268066 10.90723633 9.87231445 11.53759766 C13.45285638 15.74355934 16.89591155 20.03131982 20.203125 24.45703125 C20.60144531 24.94429687 20.99976563 25.4315625 21.41015625 25.93359375 C21.74015625 25.93359375 22.07015625 25.93359375 22.41015625 25.93359375 C22.43909557 22.30861041 22.45693417 18.68365662 22.47265625 15.05859375 C22.48522461 13.50978516 22.48522461 13.50978516 22.49804688 11.9296875 C22.50126953 10.94355469 22.50449219 9.95742188 22.5078125 8.94140625 C22.51304932 8.0302002 22.51828613 7.11899414 22.52368164 6.18017578 C22.5590119 3.89671866 22.5590119 3.89671866 21.41015625 1.93359375 C19.3855237 1.28146083 19.3855237 1.28146083 17.41015625 0.93359375 C17.74015625 -0.05640625 18.07015625 -1.04640625 18.41015625 -2.06640625 C23.36015625 -1.73640625 28.31015625 -1.40640625 33.41015625 -1.06640625 C33.41015625 -0.40640625 33.41015625 0.25359375 33.41015625 0.93359375 C32.09015625 1.26359375 30.77015625 1.59359375 29.41015625 1.93359375 C29.08015625 17.77359375 28.75015625 33.61359375 28.41015625 49.93359375 C19.69961608 47.75595871 13.97463754 37.20682502 8.59008789 30.2800293 C5.38255027 26.1544392 2.12040018 22.08173553 -1.21484375 18.05859375 C-2.03210938 17.07117188 -2.849375 16.08375 -3.69140625 15.06640625 C-4.31789063 14.36257813 -4.944375 13.65875 -5.58984375 12.93359375 C-5.91984375 12.93359375 -6.24984375 12.93359375 -6.58984375 12.93359375 C-6.58984375 23.49359375 -6.58984375 34.05359375 -6.58984375 44.93359375 C-4.27984375 45.59359375 -1.96984375 46.25359375 0.41015625 46.93359375 C0.41015625 47.59359375 0.41015625 48.25359375 0.41015625 48.93359375 C-5.52984375 48.93359375 -11.46984375 48.93359375 -17.58984375 48.93359375 C-17.25984375 47.94359375 -16.92984375 46.95359375 -16.58984375 45.93359375 C-15.26984375 45.93359375 -13.94984375 45.93359375 -12.58984375 45.93359375 C-12.49093298 40.1678569 -12.4183553 34.40261435 -12.37011719 28.63623047 C-12.35000743 26.67487994 -12.32271557 24.71358931 -12.28808594 22.75244141 C-12.23953954 19.9324668 -12.21686889 17.1132851 -12.19921875 14.29296875 C-12.17857361 13.41678894 -12.15792847 12.54060913 -12.13665771 11.63787842 C-12.06378441 6.63803162 -12.06378441 6.63803162 -14.61425781 2.47363281 C-15.26620117 1.96541992 -15.91814453 1.45720703 -16.58984375 0.93359375 C-16.58984375 0.27359375 -16.58984375 -0.38640625 -16.58984375 -1.06640625 C-14.36496796 -1.37048264 -12.13444655 -1.63344376 -9.90234375 -1.87890625 C-8.04029297 -2.10513672 -8.04029297 -2.10513672 -6.140625 -2.3359375 C-2.58984375 -2.06640625 -2.58984375 -2.06640625 0 0 Z M23.41015625 25.93359375 C24.41015625 28.93359375 24.41015625 28.93359375 24.41015625 28.93359375 Z " fill="#FBFDFD" transform="translate(619.58984375,908.06640625)"/>
<path d="M0 0 C5.61 0.33 11.22 0.66 17 1 C17 1.66 17 2.32 17 3 C15.35 3.33 13.7 3.66 12 4 C11.98541748 4.98282959 11.97083496 5.96565918 11.95581055 6.97827148 C11.8973541 10.66319163 11.82012942 14.34753056 11.73754883 18.03198242 C11.70452021 19.61945078 11.67642131 21.20703035 11.65356445 22.79467773 C11.34515685 43.65484315 11.34515685 43.65484315 5.5 49.5 C0.948192 52.2310848 -3.21408184 52.21512893 -8.375 52.25 C-9.13039063 52.270625 -9.88578125 52.29125 -10.6640625 52.3125 C-16.29920907 52.35190662 -19.58750031 51.34714981 -23.73046875 47.31640625 C-24.21128906 46.73761719 -24.69210937 46.15882813 -25.1875 45.5625 C-25.92033203 44.69818359 -25.92033203 44.69818359 -26.66796875 43.81640625 C-29.9226152 39.37825201 -30.32734822 35.59987129 -30.4140625 30.171875 C-30.43342865 29.42286926 -30.4527948 28.67386353 -30.4727478 27.90216064 C-30.53235716 25.51822164 -30.57885354 23.13423386 -30.625 20.75 C-30.66319701 19.13018769 -30.70224975 17.51039532 -30.7421875 15.890625 C-30.83804313 11.92724594 -30.92214246 7.96377181 -31 4 C-31.99 3.67 -32.98 3.34 -34 3 C-34 2.34 -34 1.68 -34 1 C-26.08 1 -18.16 1 -10 1 C-10 1.66 -10 2.32 -10 3 C-11.65 3.33 -13.3 3.66 -15 4 C-15.04947953 9.19611221 -15.08575727 14.39208691 -15.10986328 19.58837891 C-15.11991384 21.35565582 -15.13355642 23.12291613 -15.15087891 24.89013672 C-15.17516885 27.43200785 -15.18649255 29.97365889 -15.1953125 32.515625 C-15.20563507 33.30430969 -15.21595764 34.09299438 -15.22659302 34.90557861 C-15.25513395 40.27502021 -15.25513395 40.27502021 -13 45 C-9.08718168 47.48997529 -5.50879703 47.02733622 -1.0859375 46.58203125 C1.42309949 45.88194415 2.39914352 45.03260262 4 43 C5.23180134 39.30459598 5.12412112 35.89696622 5.09765625 32.05078125 C5.0962413 31.27816452 5.09482635 30.50554779 5.09336853 29.70951843 C5.08777466 27.24380611 5.07522333 24.77818485 5.0625 22.3125 C5.05748421 20.63997527 5.05292144 18.96744912 5.04882812 17.29492188 C5.03780724 13.19657954 5.02054684 9.09830521 5 5 C2.525 4.01 2.525 4.01 0 3 C0 2.01 0 1.02 0 0 Z M-29 7 C-29 17.23 -29 27.46 -29 38 C-28.67 38 -28.34 38 -28 38 C-28 27.77 -28 17.54 -28 7 C-28.33 7 -28.66 7 -29 7 Z " fill="#FBFDFD" transform="translate(985,906)"/>
<path d="M0 0 C5.28 0.33 10.56 0.66 16 1 C16 1.66 16 2.32 16 3 C14.68 3.33 13.36 3.66 12 4 C11.98541748 4.98282959 11.97083496 5.96565918 11.95581055 6.97827148 C11.8973541 10.66319163 11.82012942 14.34753056 11.73754883 18.03198242 C11.70452021 19.61945078 11.67642131 21.20703035 11.65356445 22.79467773 C11.34515685 43.65484315 11.34515685 43.65484315 5.5 49.5 C0.948192 52.2310848 -3.21408184 52.21512893 -8.375 52.25 C-9.13039063 52.270625 -9.88578125 52.29125 -10.6640625 52.3125 C-16.29920907 52.35190662 -19.58750031 51.34714981 -23.73046875 47.31640625 C-24.21128906 46.73761719 -24.69210937 46.15882813 -25.1875 45.5625 C-25.92033203 44.69818359 -25.92033203 44.69818359 -26.66796875 43.81640625 C-29.9226152 39.37825201 -30.32734822 35.59987129 -30.4140625 30.171875 C-30.43342865 29.42286926 -30.4527948 28.67386353 -30.4727478 27.90216064 C-30.53235716 25.51822164 -30.57885354 23.13423386 -30.625 20.75 C-30.66319701 19.13018769 -30.70224975 17.51039532 -30.7421875 15.890625 C-30.83804313 11.92724594 -30.92214246 7.96377181 -31 4 C-31.99 3.67 -32.98 3.34 -34 3 C-34 2.34 -34 1.68 -34 1 C-26.08 1 -18.16 1 -10 1 C-10 1.66 -10 2.32 -10 3 C-11.65 3.33 -13.3 3.66 -15 4 C-15.04947953 9.19611221 -15.08575727 14.39208691 -15.10986328 19.58837891 C-15.11991384 21.35565582 -15.13355642 23.12291613 -15.15087891 24.89013672 C-15.17516885 27.43200785 -15.18649255 29.97365889 -15.1953125 32.515625 C-15.20563507 33.30430969 -15.21595764 34.09299438 -15.22659302 34.90557861 C-15.25513395 40.27502021 -15.25513395 40.27502021 -13 45 C-9.08718168 47.48997529 -5.50879703 47.02733622 -1.0859375 46.58203125 C1.44933079 45.87462493 2.41577611 45.08829513 4 43 C5.36364501 39.16174206 5.12633483 35.18956169 5.09765625 31.171875 C5.0962413 30.42286926 5.09482635 29.67386353 5.09336853 28.90216064 C5.08778659 26.51806588 5.07523745 24.13406622 5.0625 21.75 C5.05748266 20.13020969 5.05292016 18.51041791 5.04882812 16.890625 C5.03782308 12.92704688 5.02057091 8.96353955 5 5 C2.525 4.01 2.525 4.01 0 3 C0 2.01 0 1.02 0 0 Z M-29 7 C-29 17.23 -29 27.46 -29 38 C-28.67 38 -28.34 38 -28 38 C-28 27.77 -28 17.54 -28 7 C-28.33 7 -28.66 7 -29 7 Z " fill="#FBFDFD" transform="translate(860,906)"/>
<path d="M0 0 C0 3.3 0 6.6 0 10 C-7.16447023 13.7960508 -14.1805852 16.60483478 -21.9375 18.9375 C-23.0527002 19.27668457 -24.16790039 19.61586914 -25.31689453 19.96533203 C-65.08873075 31.76869406 -65.08873075 31.76869406 -82 31 C-81.71812064 29.20676747 -81.4241719 27.41542874 -81.125 25.625 C-80.96257813 24.62726562 -80.80015625 23.62953125 -80.6328125 22.6015625 C-80 20 -80 20 -78 18 C-75.86299031 17.49614319 -73.70195921 17.09274851 -71.53515625 16.73828125 C-70.1767686 16.50814739 -68.81845465 16.27757822 -67.46020508 16.04663086 C-66.74313385 15.92738251 -66.02606262 15.80813416 -65.28726196 15.68527222 C-45.35488057 12.34548211 -25.34711085 8.33199422 -6.50390625 0.84765625 C-4 0 -4 0 0 0 Z " fill="#000100" transform="translate(975,765)"/>
<path d="M0 0 C1.88478088 0.2848053 1.88478088 0.2848053 4 1 C5.44155085 3.69238401 6.59952037 6.23278197 7.71484375 9.05859375 C8.05246231 9.87691177 8.39008087 10.6952298 8.7379303 11.53834534 C9.81891821 14.16574629 10.87890918 16.80100512 11.9375 19.4375 C17.46426438 34.74294695 17.46426438 34.74294695 25 49 C25.99 49.33 26.98 49.66 28 50 C28 50.66 28 51.32 28 52 C19.75 52 11.5 52 3 52 C3.33 51.01 3.66 50.02 4 49 C5.32 49 6.64 49 8 49 C7.01 45.04 6.02 41.08 5 37 C2.72879236 37.00600055 0.45766714 37.05599796 -1.8125 37.125 C-3.70935547 37.15980469 -3.70935547 37.15980469 -5.64453125 37.1953125 C-9.24126835 37.6547604 -9.24126835 37.6547604 -10.90625 40.875 C-11.86030844 43.60088125 -12.5803683 46.14650446 -13 49 C-11.02 49.33 -9.04 49.66 -7 50 C-7 50.66 -7 51.32 -7 52 C-12.28 52 -17.56 52 -23 52 C-22 49 -22 49 -19 47 C-17.89423874 45.02785137 -17.89423874 45.02785137 -17.02294922 42.67382812 C-16.66602997 41.77950073 -16.30911072 40.88517334 -15.94137573 39.96374512 C-15.56626862 38.99602173 -15.1911615 38.02829834 -14.8046875 37.03125 C-14.41177521 36.04000122 -14.01886292 35.04875244 -13.61404419 34.02746582 C-12.35874696 30.85509121 -11.11662942 27.67774579 -9.875 24.5 C-8.62329167 21.32347226 -7.36898285 18.14797985 -6.11453247 14.97253418 C-5.33435733 12.99465706 -4.55636597 11.01591693 -3.7807312 9.03625488 C-3.43011627 8.14192749 -3.07950134 7.2476001 -2.71826172 6.32617188 C-2.25551346 5.14275208 -2.25551346 5.14275208 -1.78341675 3.9354248 C-1 2 -1 2 0 0 Z M-3 19 C-3.84212256 20.91282125 -4.67338864 22.83042473 -5.5 24.75 C-5.9640625 25.81734375 -6.428125 26.8846875 -6.90625 27.984375 C-8.22730717 31.09207716 -8.22730717 31.09207716 -8 35 C-4.04 35 -0.08 35 4 35 C3.319375 32.9890625 3.319375 32.9890625 2.625 30.9375 C1.30503052 26.98384733 0.11106099 23.01691279 -1 19 C-1.66 19 -2.32 19 -3 19 Z M9 47 C10 49 10 49 10 49 Z " fill="#FBFDFD" transform="translate(400,905)"/>
<path d="M0 0 C12.87 0.495 12.87 0.495 26 1 C26 1.66 26 2.32 26 3 C24.7934375 3.433125 24.7934375 3.433125 23.5625 3.875 C20.8673532 4.73262568 20.8673532 4.73262568 20 7 C19.91301772 9.91699274 19.88448077 12.80982548 19.90234375 15.7265625 C19.90446617 17.02078629 19.90446617 17.02078629 19.90663147 18.34115601 C19.91223812 21.1024723 19.92479173 23.86370812 19.9375 26.625 C19.94251414 28.4947905 19.9470772 30.36458226 19.95117188 32.234375 C19.96220971 36.82294777 19.9794788 41.41146023 20 46 C21.98 46.99 23.96 47.98 26 49 C26 49.66 26 50.32 26 51 C17.42 51 8.84 51 0 51 C0.33 50.01 0.66 49.02 1 48 C2.98 47.505 2.98 47.505 5 47 C5 33.14 5 19.28 5 5 C2.525 4.01 2.525 4.01 0 3 C0 2.01 0 1.02 0 0 Z " fill="#FBFDFD" transform="translate(565,906)"/>
<path d="M0 0 C2 2 2 2 2.265625 4.3125 C2.26046875 5.199375 2.2553125 6.08625 2.25 7 C2.25515625 7.886875 2.2603125 8.77375 2.265625 9.6875 C2 12 2 12 0 14 C-2.22229641 14.22770612 -4.4549406 14.35920621 -6.6875 14.4375 C-15.40481609 14.87541856 -15.40481609 14.87541856 -22.5234375 19.53125 C-23.74886874 20.96656173 -24.88393499 22.47809317 -26 24 C-27.37657483 19.87027552 -26.94195225 17.00623597 -25.09765625 13.078125 C-21.70430196 6.99979342 -17.44581174 3.56669749 -10.8828125 1.25390625 C-7.26995086 0.26548184 -3.73566354 -0.43948983 0 0 Z " fill="#000100" transform="translate(1010,628)"/>
<path d="M0 0 C4.90801549 1.48727742 8.40491293 4.44635485 12 8 C12 8.33 12 8.66 12 9 C8.7 9 5.4 9 2 9 C0.11656068 5.23312136 -0.22057835 3.97041037 0 0 Z " fill="#000100" transform="translate(859,631)"/>
<path d="M0 0 C8.25 0 16.5 0 25 0 C25 0.33 25 0.66 25 1 C16.75 1 8.5 1 0 1 C0 0.67 0 0.34 0 0 Z " fill="#FBFDFD" transform="translate(318,905)"/>
<path d="M0 0 C7.59 0 15.18 0 23 0 C23 0.33 23 0.66 23 1 C15.41 1 7.82 1 0 1 C0 0.67 0 0.34 0 0 Z " fill="#FBFDFD" transform="translate(505,905)"/>
<path d="M0 0 C6.6 0 13.2 0 20 0 C20 0.33 20 0.66 20 1 C13.4 1 6.8 1 0 1 C0 0.67 0 0.34 0 0 Z " fill="#FBFDFD" transform="translate(891,905)"/>
<path d="M0 0 C6.27 0 12.54 0 19 0 C19 0.33 19 0.66 19 1 C12.73 1 6.46 1 0 1 C0 0.67 0 0.34 0 0 Z " fill="#FBFDFD" transform="translate(259,905)"/>
<path d="M0 0 C5.94 0 11.88 0 18 0 C18 0.33 18 0.66 18 1 C12.06 1 6.12 1 0 1 C0 0.67 0 0.34 0 0 Z " fill="#FBFDFD" transform="translate(791,934)"/>
<path d="M0 0 C5.94 0 11.88 0 18 0 C18 0.33 18 0.66 18 1 C12.06 1 6.12 1 0 1 C0 0.67 0 0.34 0 0 Z " fill="#FBFDFD" transform="translate(697,934)"/>
<path d="M0 0 C5.61 0 11.22 0 17 0 C17 0.33 17 0.66 17 1 C11.39 1 5.78 1 0 1 C0 0.67 0 0.34 0 0 Z " fill="#FBFDFD" transform="translate(568,905)"/>
<path d="M0 0 C5.28 0 10.56 0 16 0 C16 0.33 16 0.66 16 1 C10.72 1 5.44 1 0 1 C0 0.67 0 0.34 0 0 Z " fill="#FBFDFD" transform="translate(953,905)"/>
<path d="M0 0 C5.28 0 10.56 0 16 0 C16 0.33 16 0.66 16 1 C10.72 1 5.44 1 0 1 C0 0.67 0 0.34 0 0 Z " fill="#FBFDFD" transform="translate(828,905)"/>
<path d="M0 0 C4.29 0 8.58 0 13 0 C13 0.33 13 0.66 13 1 C8.71 1 4.42 1 0 1 C0 0.67 0 0.34 0 0 Z " fill="#FBFDFD" transform="translate(603,905)"/>
<path d="M0 0 C3.96 0 7.92 0 12 0 C12 0.33 12 0.66 12 1 C8.04 1 4.08 1 0 1 C0 0.67 0 0.34 0 0 Z " fill="#FBFDFD" transform="translate(441,905)"/>
<path d="M0 0 C2.97 0 5.94 0 9 0 C9 0.33 9 0.66 9 1 C6.03 1 3.06 1 0 1 C0 0.67 0 0.34 0 0 Z " fill="#FBFDFD" transform="translate(987,905)"/>
<path d="M0 0 C2.97 0 5.94 0 9 0 C9 0.33 9 0.66 9 1 C6.03 1 3.06 1 0 1 C0 0.67 0 0.34 0 0 Z " fill="#FBFDFD" transform="translate(862,905)"/>
<path d="M0 0 C2.97 0 5.94 0 9 0 C9 0.33 9 0.66 9 1 C6.03 1 3.06 1 0 1 C0 0.67 0 0.34 0 0 Z " fill="#FBFDFD" transform="translate(639,905)"/>
<path d="M0 0 C2.64 0 5.28 0 8 0 C8 0.33 8 0.66 8 1 C5.36 1 2.72 1 0 1 C0 0.67 0 0.34 0 0 Z " fill="#FBFDFD" transform="translate(394,938)"/>
<path d="M0 0 C2.64 0 5.28 0 8 0 C8 0.33 8 0.66 8 1 C5.36 1 2.72 1 0 1 C0 0.67 0 0.34 0 0 Z " fill="#FBFDFD" transform="translate(477,905)"/>
<path d="M0 0 C0.33 0 0.66 0 1 0 C1 1.98 1 3.96 1 6 C0.67 6 0.34 6 0 6 C0 4.02 0 2.04 0 0 Z " fill="#FBFDFD" transform="translate(759,930)"/>
<path d="M0 0 C0.33 0 0.66 0 1 0 C1 1.65 1 3.3 1 5 C0.67 5 0.34 5 0 5 C0 3.35 0 1.7 0 0 Z " fill="#FBFDFD" transform="translate(665,930)"/>
<path d="M0 0 C0.33 0 0.66 0 1 0 C1 1.65 1 3.3 1 5 C0.67 5 0.34 5 0 5 C0 3.35 0 1.7 0 0 Z " fill="#FBFDFD" transform="translate(265,276)"/>
<path d="M0 0 C4 1 4 1 4 1 Z " fill="#FBFDFD" transform="translate(912,905)"/>
<path d="M0 0 C4 1 4 1 4 1 Z " fill="#FBFDFD" transform="translate(279,905)"/>
<path d="M0 0 C1 4 1 4 1 4 Z " fill="#FBFDFD" transform="translate(880,622)"/>
<path d="" fill="#FBFDFD" transform="translate(0,0)"/>
<path d="" fill="#000100" transform="translate(0,0)"/>
<path d="" fill="#000100" transform="translate(0,0)"/>
<path d="" fill="#000100" transform="translate(0,0)"/>
<path d="" fill="#000100" transform="translate(0,0)"/>
<path d="" fill="#000100" transform="translate(0,0)"/>
<path d="" fill="#000100" transform="translate(0,0)"/>
<path d="" fill="#FBFDFD" transform="translate(0,0)"/>
<path d="" fill="#FBFDFD" transform="translate(0,0)"/>
<path d="" fill="#FBFDFD" transform="translate(0,0)"/>
</svg>
